<?xml version="1.0" encoding="UTF-8"?>
<svg data-bbox="1.45 1.15 777.525 208.891" viewBox="0 0 714.3 229.03" xmlns="http://www.w3.org/2000/svg" data-type="ugc">
    <g>
        <text transform="translate(100.87 161.32)" fill="#e22027" font-family="SourceSansPro-Semibold,Source Sans Pro" font-size="102.82" font-weight="700"><tspan y="0" x="0">ED</tspan></text>
        <text transform="translate(193.85 187.9)" fill="#ffffff" font-family="SourceSansPro-Semibold,Source Sans Pro" font-size="102.82" font-weight="700"><tspan y="0" x="0" letter-spacing="0">CA</tspan><tspan y="0" x="115.05" letter-spacing="-.02em">R</tspan><tspan y="0" x="173.55" letter-spacing="0">TUNING</tspan></text>
        <path d="m235.48 121.86-3.51-7.86c-9.27-20.39-26.74-31.76-41.42-38.07a84.31 84.31 0 0 0-44.31-6.16c-7.66 1-15.23 3.11-22.75 7.54-3.21 1.89-6.16 4.18-8.91 6.7-4.72 4.33-9.13 8.97-13.51 13.63-9.11 9.69-23.24 13.24-35.96 8.25l-3.13-1.23c-11.6-4.55-22.39-11.04-31.6-19.44-3.57-3.26-7.11-6.96-10.19-11.03l12.97-3.74" fill="none" stroke="#ffffff" stroke-miterlimit="10" stroke-width="2"/>
        <path d="M311 106.56s-76.41-48.37-124.55-58.12S33.16 70.43 33.16 70.43" fill="none" stroke="#ffffff" stroke-miterlimit="10" stroke-width="2"/>
        <path d="M178.04 47.2s158.92-35.93 214.38-29.84c55.45 6.09 133.45 43.65 133.45 43.65l3.54 1.56" fill="none" stroke="#ffffff" stroke-miterlimit="10" stroke-width="2"/>
        <path d="M477.74 70.9s-75.61-1.73-120.71-18.05c0 0-17.62-6.58-24.2-14.89l114.23-8.05" fill="none" stroke="#ffffff" stroke-miterlimit="10" stroke-width="2"/>
        <path d="m234.68 65.3 67.52 1.89 202.39 31.79 12.3-10.83c9.55-7.38 19.16-10.45 28.92-11.73 15.41-2.02 31.13.32 45.34 6.61 14.46 6.4 32.8 18.84 41.55 38.64" stroke-linecap="round" fill="none" stroke="#ffffff" stroke-miterlimit="10" stroke-width="2"/>
        <path d="M562.28 75.91s-78.16-1.25-119.38 3.78c-.46.06-.6-.61-.15-.73 15.85-4.16 63.32-15.73 108.81-17.78 13.06-.59 26.12 1.24 38.53 5.34h0c4.75 1.57 9.37 3.46 13.85 5.68 20.4 10.07 83.64 42.39 97.88 52.33" stroke-linecap="round" fill="none" stroke="#ffffff" stroke-miterlimit="10" stroke-width="2"/>
        <path d="M373.03 16.72c-1.18 0-328.77-7.33-328.77-7.33L39.65 4.9 1.45 1.15l13.99 40.44s27.96 4.46 55.45 17.08" stroke-linecap="round" fill="none" stroke="#ffffff" stroke-miterlimit="10" stroke-width="2"/>
        <path d="M112.18 51.12S64.38 36.98 44.26 9.39" stroke-linecap="round" fill="none" stroke="#ffffff" stroke-miterlimit="10" stroke-width="2"/>
        <path d="M202.58 41.92s-11.78-15.44-53.59-17.93l-77.5-7.1c19.59 20.67 56.68 32.34 56.68 32.34" stroke-linecap="round" fill="none" stroke="#ffffff" stroke-miterlimit="10" stroke-width="2"/>
        <path stroke-linecap="round" fill="none" stroke="#ffffff" stroke-miterlimit="10" stroke-width="2" d="m71.49 16.89-22.62-1.9"/>
    </g>
</svg>
